@startuml ska_tmc_cdm.messages.central_node.csp
!pragma useIntermediatePackages false

class ska_tmc_cdm.messages.central_node.csp.CSPConfiguration {
  pss: Optional[PSSConfiguration] {static}
  pst: Optional[PSTConfiguration] {static}
}
class ska_tmc_cdm.messages.central_node.csp.PSSConfiguration {
  pss_beam_ids: Optional[list[int]] {static}
}
class ska_tmc_cdm.messages.central_node.csp.PSTConfiguration {
  pst_beam_ids: Optional[list[int]] {static}
}
ska_tmc_cdm.messages.central_node.csp.CSPConfiguration *-- ska_tmc_cdm.messages.central_node.csp.PSSConfiguration
ska_tmc_cdm.messages.central_node.csp.CSPConfiguration *-- ska_tmc_cdm.messages.central_node.csp.PSTConfiguration
footer Generated by //py2puml//
@enduml

