@startuml ska_tmc_cdm.messages.central_node.mccs
!pragma useIntermediatePackages false

class ska_tmc_cdm.messages.central_node.mccs.ApertureConfiguration {
  station_id: Optional[int] {static}
  aperture_id: Optional[str] {static}
}
class ska_tmc_cdm.messages.central_node.mccs.MCCSAllocate {
  station_ids: Optional[list[list[int]]] {static}
  channel_blocks: Optional[list[int]] {static}
  subarray_beam_ids: Optional[list[int]] {static}
  interface: Optional[str] {static}
  subarray_beams: Optional[list[SubArrayBeamsConfiguration]] {static}
}
class ska_tmc_cdm.messages.central_node.mccs.SubArrayBeamsConfiguration {
  subarray_beam_id: Optional[int] {static}
  apertures: Optional[list[ApertureConfiguration]] {static}
  number_of_channels: Optional[int] {static}
}
ska_tmc_cdm.messages.central_node.mccs.MCCSAllocate *-- "1" ska_tmc_cdm.messages.central_node.mccs.SubArrayBeamsConfiguration
ska_tmc_cdm.messages.central_node.mccs.SubArrayBeamsConfiguration *-- "1" ska_tmc_cdm.messages.central_node.mccs.ApertureConfiguration
footer Generated by //py2puml//
@enduml

